<svg id="Capa_1" data-name="Capa 1" xmlns="http://www.w3.org/2000/svg" viewBox="0 0 512 512"><defs><style>.cls-1{fill:#b7eabc;}.cls-2{fill:lime;}.cls-3{fill:#fff;}</style></defs><circle class="cls-1" cx="424.36" cy="424.36" r="32.64"/><circle class="cls-2" cx="424.36" cy="424.36" r="32.64"/><circle class="cls-1" cx="87.64" cy="424.36" r="32.64"/><circle class="cls-2" cx="87.64" cy="424.36" r="32.64"/><circle class="cls-1" cx="424.36" cy="87.64" r="32.64"/><circle class="cls-2" cx="424.36" cy="87.64" r="32.64"/><circle class="cls-1" cx="87.64" cy="87.64" r="32.64"/><circle class="cls-2" cx="87.64" cy="87.64" r="32.64"/><circle class="cls-2" cx="470.5" cy="256" r="31.5"/><circle class="cls-2" cx="41.5" cy="256" r="31.5"/><circle class="cls-2" cx="256" cy="470.5" r="31.5"/><circle class="cls-2" cx="256" cy="41.5" r="31.5"/><circle class="cls-2" cx="470.5" cy="256" r="31.5"/><circle class="cls-2" cx="41.5" cy="256" r="31.5"/><circle class="cls-2" cx="256" cy="470.5" r="31.5"/><circle class="cls-2" cx="256" cy="41.5" r="31.5"/><path class="cls-2" d="M365.79,365.79a154.23,154.23,0,0,1-81.07,42.82l-6.09,1.11A27.55,27.55,0,0,0,256,436.83a27.55,27.55,0,0,0-22.63-27.11l-6-1.11a155.36,155.36,0,0,1-124-123.89l-1.11-6.09A27.55,27.55,0,0,0,75.17,256a27.55,27.55,0,0,0,27.11-22.63l1.11-6a155.32,155.32,0,0,1,124-124l6-1.11A27.55,27.55,0,0,0,256,75.17a27.55,27.55,0,0,0,22.63,27.11l6.09,1.11a155.39,155.39,0,0,1,123.89,124l1.11,6A27.55,27.55,0,0,0,436.83,256a27.55,27.55,0,0,0-27.11,22.63l-1.11,6.09a154.23,154.23,0,0,1-42.82,81.07Z" transform="translate(0 0)"/><circle class="cls-3" cx="290.83" cy="299.88" r="43.17"/><circle class="cls-3" cx="190.74" cy="228.34" r="28.37"/><circle class="cls-3" cx="283.15" cy="181.15" r="25.15"/><path d="M470.5,214.5a41.57,41.57,0,0,0-40,30.33,17.57,17.57,0,0,1-11-13.28l-1.11-6a164.19,164.19,0,0,0-38.74-79.12L402.13,124A42.69,42.69,0,1,0,388,109.87L365.56,132.3a164.06,164.06,0,0,0-79.05-38.75l-6.09-1.1a17.57,17.57,0,0,1-13.25-11,41.51,41.51,0,1,0-22.36,0A17.64,17.64,0,0,1,233.43,92a10,10,0,0,0,5.66,19.18A37.41,37.41,0,0,0,256,100.66a37.45,37.45,0,0,0,20.87,11.46l6,1.1a145.39,145.39,0,0,1,115.9,116l1.1,5.93A37.46,37.46,0,0,0,411.31,256a37.46,37.46,0,0,0-11.43,20.83l-1.1,6.05A145.44,145.44,0,0,1,282.92,398.77l-6.08,1.11A37.5,37.5,0,0,0,256,411.3a37.43,37.43,0,0,0-20.8-11.42l-6-1.1a145.38,145.38,0,0,1-116-115.86l-1.11-6.08A37.5,37.5,0,0,0,100.7,256a37.35,37.35,0,0,0,11.41-20.8l1.11-6a144.43,144.43,0,0,1,40.07-76c2.63-2.64,5.39-5.2,8.21-7.61a10,10,0,0,0-13-15.18c-.69.59-1.37,1.19-2,1.79L124,109.87A42.66,42.66,0,1,0,109.87,124l22.43,22.43a164.18,164.18,0,0,0-38.74,79.13l-1.11,6a17.56,17.56,0,0,1-11,13.25,41.5,41.5,0,1,0,0,22.34,17.57,17.57,0,0,1,11,13.25l1.11,6.13a163.92,163.92,0,0,0,38.74,79L109.87,388A42.69,42.69,0,1,0,124,402.13l22.43-22.43a164.18,164.18,0,0,0,79.13,38.74l6,1.11a17.54,17.54,0,0,1,13.24,11,41.5,41.5,0,1,0,22.34,0,17.57,17.57,0,0,1,13.25-11l6.13-1.11a164,164,0,0,0,79-38.74L388,402.13A42.66,42.66,0,1,0,402.13,388L379.7,365.55a164,164,0,0,0,38.75-79l1.1-6.09a17.57,17.57,0,0,1,11-13.25,41.5,41.5,0,1,0,40-52.67Zm-236-173A21.5,21.5,0,1,1,256,63,21.53,21.53,0,0,1,234.5,41.5ZM424.36,65a22.65,22.65,0,1,1-22.65,22.64A22.67,22.67,0,0,1,424.36,65ZM87.64,110.29a22.65,22.65,0,1,1,22.65-22.65A22.67,22.67,0,0,1,87.64,110.29ZM41.5,277.5A21.5,21.5,0,1,1,63,256,21.52,21.52,0,0,1,41.5,277.5ZM87.64,447a22.65,22.65,0,1,1,22.65-22.64A22.67,22.67,0,0,1,87.64,447ZM277.5,470.5A21.5,21.5,0,1,1,256,449,21.52,21.52,0,0,1,277.5,470.5Zm146.86-68.78a22.64,22.64,0,1,1-22.65,22.64A22.66,22.66,0,0,1,424.36,401.72ZM470.5,277.5A21.5,21.5,0,1,1,492,256,21.52,21.52,0,0,1,470.5,277.5Z" transform="translate(0 0)"/><path d="M290.83,353.05a53.17,53.17,0,1,0-53.16-53.17A53.23,53.23,0,0,0,290.83,353.05Zm0-86.33a33.17,33.17,0,1,1-33.16,33.16A33.2,33.2,0,0,1,290.83,266.72Z" transform="translate(0 0)"/><path d="M152.37,228.34A38.38,38.38,0,1,0,190.75,190a38.43,38.43,0,0,0-38.38,38.37Zm56.75,0A18.38,18.38,0,1,1,190.74,210a18.4,18.4,0,0,1,18.38,18.37Z" transform="translate(0 0)"/><path d="M283.15,216.3A35.15,35.15,0,1,0,248,181.15,35.19,35.19,0,0,0,283.15,216.3Zm0-50.3A15.15,15.15,0,1,1,268,181.15,15.17,15.17,0,0,1,283.15,166Z" transform="translate(0 0)"/><path d="M193,124.06a10,10,0,1,0-7.07-2.93A10.08,10.08,0,0,0,193,124.06Z" transform="translate(0 0)"/></svg>